<svg width="289.08" height="86.482" viewBox="-10 -5 120 120" class="prefix__prefix__css-1j8o68f" xmlns="http://www.w3.org/2000/svg"><path d="M99.227 75.427C95.169 92.1 81.152 104.2 64.848 108.846c-5.164 1.328-11.582 1.844-19.402 1.844H0l11.066-48.102h-8.41L17.042.618c12.763 0 51.494-2.435 64.554 2.36C92.662 7.332 97.9 16.48 95.17 28.43c-2.066 8.927-7.451 15.862-14.681 21.247 6.05 3.025 9.59 7.6 10.77 12.91h8.116c.96 4.132.738 8.116-.147 12.838zm-37.773-.443c2.36-10.255-7.746-8.263-14.386-8.263l-3.984 17.042c8.19 0 16.23.96 18.37-8.78zm-4.427-39.838c1.697-6.86-3.984-7.672-9.37-7.672l-2.803 13.353c4.131.369 11.066-.222 12.173-5.681z" fill="#00ff98"/></svg>
