<svg width="289.08001098632815" height="86.48198026520059" viewBox="0 0 370 110.6902292861666" class="css-1j8o68f"><defs id="SvgjsDefs1011"></defs><g id="SvgjsG1012" featurekey="monogramFeature-0" transform="matrix(2.518182432972451,0,0,2.518182432972451,-6.123958314121126,-40.39925176137516)" fill="#00ff98"><path d="M41.836 45.996 c-1.6113 6.6211 -7.1777 11.426 -13.652 13.271 c-2.0508 0.52734 -4.5996 0.73242 -7.7051 0.73242 l-18.047 0 l4.3945 -19.102 l-3.3398 0 l5.7129 -24.609 c5.0684 0 20.449 -0.9668 25.635 0.9375 c4.3945 1.7285 6.4746 5.3613 5.3906 10.107 c-0.82031 3.5449 -2.959 6.2988 -5.8301 8.4375 c2.4023 1.2012 3.8086 3.0176 4.2773 5.127 l3.2227 0 c0.38086 1.6406 0.29297 3.2227 -0.058594 5.0977 z M26.836 45.82 c0.9375 -4.0723 -3.0762 -3.2813 -5.7129 -3.2813 l-1.582 6.7676 c3.252 0 6.4453 0.38086 7.2949 -3.4863 z M25.078 30 c0.67383 -2.7246 -1.582 -3.0469 -3.7207 -3.0469 l-1.1133 5.3027 c1.6406 0.14648 4.3945 -0.087891 4.834 -2.2559 z"></path></g><g id="SvgjsG1013" featurekey="nameFeature-0" transform="matrix(1.5196642269241576,0,0,1.5196642269241576,118.17640466680871,16.283751474423976)" fill="#ffffff"><path d="M6.96 16.08 l0.000039062 7.6 l2.72 0 c0.21332 0 0.38664 -0.06 0.51996 -0.18 s0.2 -0.31332 0.2 -0.58 l0 -6.28 c0 -0.37332 -0.17332 -0.56 -0.52 -0.56 l-2.92 0 z M10.48 28.92 c0 -0.32 -0.08 -0.54004 -0.24 -0.66004 s-0.37332 -0.18 -0.64 -0.18 l-2.64 0 l0 6.84 l2.92 0 c0.24 0 0.4 -0.04668 0.48 -0.14 s0.12 -0.24664 0.12 -0.45996 l0 -5.4 z M15.96 22.48 c0 0.72 -0.14 1.34 -0.42 1.86 s-0.80668 0.88668 -1.58 1.1 c0.8 0.05332 1.38 0.33332 1.74 0.84 s0.54 1.08 0.54 1.72 l0 7.52 c0 1.6 -0.33332 2.7467 -1 3.44 s-1.84 1.04 -3.52 1.04 l-10.52 0 l0 -29 l11.32 0 c1.1467 0 2.0067 0.32 2.58 0.96 s0.86 1.4933 0.86 2.56 l0 7.96 z M21.79 11 l5.8 0 l0 29 l-5.8 0 l0 -29 z M33.14 14.52 c0 -1.0667 0.28668 -1.92 0.86 -2.56 s1.4333 -0.96 2.58 -0.96 l8.28 0 l1 5.4 l-6.36 0 c-0.34668 0 -0.52 0.18668 -0.52 0.56 l0 17.2 c0 0.37332 0.17332 0.56 0.52 0.56 l2.64 0 l0 -11.44 l5.64 0 l0 16.72 l-10.12 0 c-1.68 0 -2.8533 -0.34668 -3.52 -1.04 s-1 -1.84 -1 -3.44 l0 -21 z M58.97 16.08 l0 11.4 l2.88 0 c0.24 0 0.39332 -0.04668 0.46 -0.14 s0.1 -0.24664 0.1 -0.45996 l0 -10.24 c0 -0.37332 -0.17332 -0.56 -0.52 -0.56 l-2.92 0 z M64.61 11 c1.1467 0 2.0067 0.31996 2.58 0.95996 s0.86 1.4933 0.86 2.56 l0 13.88 c0 0.56 -0.06 1.0733 -0.18 1.54 s-0.34 0.87336 -0.66 1.22 s-0.74668 0.62 -1.28 0.82 s-1.2 0.3 -2 0.3 l-4.96 0 l0 7.72 l-5.76 0 l0 -29 l11.4 0 z M78 40 c-1.68 0 -2.8533 -0.34668 -3.52 -1.04 s-1 -1.84 -1 -3.44 l0 -24.52 l5.92 0 l0 23.28 c0 0.21332 0.03332 0.37332 0.1 0.48 s0.22 0.16 0.46 0.16 l2.04 0 c0.24 0 0.39332 -0.05332 0.46 -0.16 s0.1 -0.26668 0.1 -0.48 l0 -23.28 l5.92 0 l0 24.52 c0 1.6 -0.33332 2.7467 -1 3.44 s-1.84 1.04 -3.52 1.04 l-5.96 0 z M94.03 11 l5.96 0 l0 23.6 l5.84 0 l-1 5.4 l-10.8 0 l0 -29 z M110.78 11 l5.96 0 l0 23.6 l5.84 0 l-1 5.4 l-10.8 0 l0 -29 z M127.53 37.32 c0 -0.85332 0.30668 -1.5866 0.92 -2.2 s1.3466 -0.92 2.2 -0.92 s1.5866 0.30668 2.2 0.92 s0.92 1.3466 0.92 2.2 s-0.30668 1.58 -0.92 2.18 s-1.3466 0.9 -2.2 0.9 s-1.5866 -0.3 -2.2 -0.9 s-0.92 -1.3267 -0.92 -2.18 z M139.32 11 l5.8 0 l0 29 l-5.8 0 l0 -29 z M157.03 16.08 c-0.34668 0 -0.52 0.18668 -0.52 0.56 l0 17.68 c0 0.21332 0.03332 0.36664 0.1 0.45996 s0.22 0.14 0.46 0.14 l2.2 0 c0.24 0 0.39332 -0.04668 0.46 -0.14 s0.1 -0.24664 0.1 -0.45996 l0 -17.68 c0 -0.37332 -0.17332 -0.56 -0.52 -0.56 l-2.28 0 z M165.71 35.88 c0 0.56 -0.06668 1.0867 -0.2 1.58 s-0.36 0.92664 -0.68 1.3 s-0.74668 0.67332 -1.28 0.9 s-1.2 0.34 -2 0.34 l-6.72 0 c-0.8 0 -1.4667 -0.11332 -2 -0.34 s-0.96 -0.52668 -1.28 -0.9 s-0.54668 -0.80664 -0.68 -1.3 s-0.2 -1.02 -0.2 -1.58 l0 -21.12 c0 -1.1467 0.31332 -2.06 0.94 -2.74 s1.62 -1.02 2.98 -1.02 l7.2 0 c1.36 0 2.3533 0.34 2.98 1.02 s0.94 1.5933 0.94 2.74 l0 21.12 z"></path></g></svg>
